<svg width="120" height="20" viewBox="0 0 120 20" fill="none" xmlns="http://www.w3.org/2000/svg">
<g clip-path="url(#clip0)">
<path d="M19.9479 7.67185C19.8169 7.26687 19.4577 6.97923 19.0328 6.94093L13.2602 6.41678L10.9776 1.07408C10.8093 0.682532 10.426 0.429077 10.0001 0.429077C9.57422 0.429077 9.19091 0.682532 9.0226 1.075L6.73998 6.41678L0.966514 6.94093C0.542309 6.98015 0.184023 7.26687 0.0523365 7.67185C-0.0793503 8.07683 0.0422654 8.52102 0.363166 8.80103L4.72653 12.6277L3.43987 18.2954C3.34573 18.7122 3.50747 19.1429 3.85325 19.3929C4.0391 19.5272 4.25655 19.5955 4.47582 19.5955C4.66488 19.5955 4.85242 19.5446 5.02073 19.4438L10.0001 16.4678L14.9776 19.4438C15.3419 19.663 15.801 19.643 16.146 19.3929C16.492 19.1422 16.6536 18.7113 16.5594 18.2954L15.2728 12.6277L19.6361 8.80179C19.957 8.52102 20.0796 8.07759 19.9479 7.67185Z" fill="#FFC107"/>
</g>
<g clip-path="url(#clip1)">
<path d="M44.9479 7.67185C44.8169 7.26687 44.4577 6.97923 44.0328 6.94093L38.2602 6.41678L35.9776 1.07408C35.8093 0.682532 35.426 0.429077 35.0001 0.429077C34.5742 0.429077 34.1909 0.682532 34.0226 1.075L31.74 6.41678L25.9665 6.94093C25.5423 6.98015 25.184 7.26687 25.0523 7.67185C24.9206 8.07683 25.0423 8.52102 25.3632 8.80103L29.7265 12.6277L28.4399 18.2954C28.3457 18.7122 28.5075 19.1429 28.8532 19.3929C29.0391 19.5272 29.2565 19.5955 29.4758 19.5955C29.6649 19.5955 29.8524 19.5446 30.0207 19.4438L35.0001 16.4678L39.9776 19.4438C40.3419 19.663 40.801 19.643 41.146 19.3929C41.492 19.1422 41.6536 18.7113 41.5594 18.2954L40.2728 12.6277L44.6361 8.80179C44.957 8.52102 45.0796 8.07759 44.9479 7.67185Z" fill="#FFC107"/>
</g>
<g clip-path="url(#clip2)">
<path d="M69.9479 7.67185C69.8169 7.26687 69.4577 6.97923 69.0328 6.94093L63.2602 6.41678L60.9776 1.07408C60.8093 0.682532 60.426 0.429077 60.0001 0.429077C59.5742 0.429077 59.1909 0.682532 59.0226 1.075L56.74 6.41678L50.9665 6.94093C50.5423 6.98015 50.184 7.26687 50.0523 7.67185C49.9206 8.07683 50.0423 8.52102 50.3632 8.80103L54.7265 12.6277L53.4399 18.2954C53.3457 18.7122 53.5075 19.1429 53.8532 19.3929C54.0391 19.5272 54.2565 19.5955 54.4758 19.5955C54.6649 19.5955 54.8524 19.5446 55.0207 19.4438L60.0001 16.4678L64.9776 19.4438C65.3419 19.663 65.801 19.643 66.146 19.3929C66.492 19.1422 66.6536 18.7113 66.5594 18.2954L65.2728 12.6277L69.6361 8.80179C69.957 8.52102 70.0796 8.07759 69.9479 7.67185Z" fill="#FFC107"/>
</g>
<g clip-path="url(#clip3)">
<path d="M94.9479 7.67185C94.8169 7.26687 94.4577 6.97923 94.0328 6.94093L88.2602 6.41678L85.9776 1.07408C85.8093 0.682532 85.426 0.429077 85.0001 0.429077C84.5742 0.429077 84.1909 0.682532 84.0226 1.075L81.74 6.41678L75.9665 6.94093C75.5423 6.98015 75.184 7.26687 75.0523 7.67185C74.9206 8.07683 75.0423 8.52102 75.3632 8.80103L79.7265 12.6277L78.4399 18.2954C78.3457 18.7122 78.5075 19.1429 78.8532 19.3929C79.0391 19.5272 79.2565 19.5955 79.4758 19.5955C79.6649 19.5955 79.8524 19.5446 80.0207 19.4438L85.0001 16.4678L89.9776 19.4438C90.3419 19.663 90.801 19.643 91.146 19.3929C91.492 19.1422 91.6536 18.7113 91.5594 18.2954L90.2728 12.6277L94.6361 8.80179C94.957 8.52102 95.0796 8.07759 94.9479 7.67185Z" fill="#FFC107"/>
</g>
<g clip-path="url(#clip4)">
<path d="M119.948 7.67185C119.817 7.26687 119.458 6.97923 119.033 6.94093L113.26 6.41678L110.978 1.07408C110.809 0.682532 110.426 0.429077 110 0.429077C109.574 0.429077 109.191 0.682532 109.023 1.075L106.74 6.41678L100.967 6.94093C100.542 6.98015 100.184 7.26687 100.052 7.67185C99.9206 8.07683 100.042 8.52102 100.363 8.80103L104.727 12.6277L103.44 18.2954C103.346 18.7122 103.507 19.1429 103.853 19.3929C104.039 19.5272 104.257 19.5955 104.476 19.5955C104.665 19.5955 104.852 19.5446 105.021 19.4438L110 16.4678L114.978 19.4438C115.342 19.663 115.801 19.643 116.146 19.3929C116.492 19.1422 116.654 18.7113 116.559 18.2954L115.273 12.6277L119.636 8.80179C119.957 8.52102 120.08 8.07759 119.948 7.67185Z" fill="#FFC107"/>
</g>
<defs>
<clipPath id="clip0">
<rect width="20" height="20" fill="white"/>
</clipPath>
<clipPath id="clip1">
<rect width="20" height="20" fill="white" transform="translate(25)"/>
</clipPath>
<clipPath id="clip2">
<rect width="20" height="20" fill="white" transform="translate(50)"/>
</clipPath>
<clipPath id="clip3">
<rect width="20" height="20" fill="white" transform="translate(75)"/>
</clipPath>
<clipPath id="clip4">
<rect width="20" height="20" fill="white" transform="translate(100)"/>
</clipPath>
</defs>
</svg>
